<?xml version="1.0" encoding="UTF-8" standalone="no"?><!DOCTYPE svg PUBLIC "-//W3C//DTD SVG 1.1//EN" "http://www.w3.org/Graphics/SVG/1.1/DTD/svg11.dtd"><svg width="100%" height="100%" viewBox="0 0 1600 800" version="1.1" xmlns="http://www.w3.org/2000/svg" xmlns:xlink="http://www.w3.org/1999/xlink" xml:space="preserve" xmlns:serif="http://www.serif.com/" style="fill-rule:evenodd;clip-rule:evenodd;stroke-linejoin:round;stroke-miterlimit:2;"><g><g><rect x="-36" y="-22" width="1677.000000000001" height="852.000000000001" style="fill:white;"/><rect x="50" y="140.720012637508" width="65.613932736468" height="534.389029953682" style="fill:rgb(255,0,137);fill-rule:nonzero;"/><path d="M424.079243868851,675.10904259119L424.079243868851,647.599139320968C393.945437723214,691.34176114528 352.997483404344,683.857566956052 301.235380912241,683.857566956052C278.392011737322,683.857566956052 257.06748359797,679.483304773621 237.261796494184,670.734780408759C217.456109390398,661.986256043896 202.753728166115,650.989846946395 193.154652821336,637.745553116256C183.555577476556,624.501259286117 176.811923278641,608.280037026268 172.923690227591,589.081886336709C170.250530004995,576.202114355106 168.913949893696,555.788890837094 168.913949893696,527.842215782672L168.913949893696,287.986839446026L234.527882630165,287.986839446026L234.527882630171,320.667506794799C234.527882630171,354.932560557177 235.864462741469,378.018944297787 238.537622964066,389.926658016627C242.668870580807,407.180692180662 251.417394945669,420.728754217914 264.783196058654,430.570844128384C278.148997171638,440.412934038854 294.6739876386,445.33397899409 314.358167459541,445.33397899409C334.042347280481,445.33397899409 352.511454272969,440.291426756009 369.765488437003,430.206322279848C387.019522601037,420.121217803687 399.231004526991,406.390894842167 406.399934214864,389.015353395287C413.568863902738,371.639811948408 417.153328746675,346.427050758006 417.153328746675,313.377069824081L417.153328746669,287.986839446026L482.767261483137,287.986839446026L482.767261483137,675.10904259119L424.079243868851,675.10904259119Z" style="fill-rule:nonzero;"/><path d="M536.476529429411,164.786605772891L601.725940317343,143.6389044698L601.725940317343,565.387966181874C601.725940317343,584.100087740052 602.880259504373,596.129308741738 605.188897878434,601.475629186932C607.497536252495,606.821949632126 611.2642620207,611.074704531712 616.489075183048,614.23389388569C621.713888345397,617.393083239668 629.186586240384,618.972677916657 638.907168868009,618.972677916657C646.197605838727,618.972677916657 655.796681183507,618.12212693674 667.704394902347,616.421024976905L677.181962964282,674.379998894119C658.712855971795,678.268231945169 642.187865504832,680.212348470694 627.606991563394,680.212348470694C603.791564125713,680.212348470694 585.322457133226,676.445622702489 572.199670585932,668.91217116608C559.076884038638,661.378719629671 549.842330542395,651.475876077778 544.496010097201,639.203640510401C539.149689652007,626.931404943025 536.476529429411,601.111107338396 536.476529429411,561.742747696515" style="fill:rgb(255,0,137);fill-rule:nonzero;"/><rect x="482.28609264307" y="287.986839446026" width="179.34474947968" height="51.033058795031" style="fill-rule:nonzero;"/><path d="M912.305226923942,675.10904259119L912.305226923942,647.599139320968C882.171420778305,691.34176114528 841.223466459435,683.857566956052 789.461363967332,683.857566956052C766.617994792413,683.857566956052 745.293466653061,679.483304773621 725.487779549275,670.734780408759C705.682092445489,661.986256043896 690.979711221206,650.989846946395 681.380635876427,637.745553116256C671.781560531647,624.501259286117 665.037906333732,608.280037026268 661.149673282682,589.081886336709C658.476513060085,576.202114355106 657.139932948787,555.788890837094 657.139932948787,527.842215782672L657.139932948787,287.986839446026L722.753865685255,287.986839446026L722.753865685262,320.667506794799C722.753865685262,354.932560557177 724.09044579656,378.018944297787 726.763606019157,389.926658016627C730.894853635898,407.180692180662 739.64337800076,420.728754217914 753.009179113744,430.570844128384C766.374980226729,440.412934038854 782.899970693691,445.33397899409 802.584150514632,445.33397899409C822.268330335572,445.33397899409 840.737437328066,440.291426756009 857.9914714921,430.206322279848C875.245505656135,420.121217803687 887.456987582088,406.390894842167 894.625917269962,389.015353395287C901.794846957835,371.639811948408 905.379311801772,346.427050758006 905.379311801772,313.377069824081L905.379311801759,287.986839446026L970.993244538228,287.986839446026L970.993244538228,675.10904259119L912.305226923942,675.10904259119Z" style="fill-rule:nonzero;"/><path d="M1025.453059956788,675.10904259119L1025.453059956788,287.986839446026L1084.141077571074,287.986839446026L1084.141077571074,318.006383759494C1097.304064652204,306.137059211821 1108.629232145516,297.657191537956 1125.536671850157,290.038556291904C1144.91725367275,281.305502302537 1175.757568836439,279.238315081163 1201.517112799645,279.238315081163C1230.192831551139,279.238315081163 1256.42746266635,287.96110694348 1273.064349287948,302.161179642422C1289.387431404391,316.093410954461 1291.193110264823,323.708169239879 1296.702044208034,339.019898241057C1324.285103095254,292.806930226002 1381.347891410707,279.238315081163 1430.436833680213,279.238315081163C1468.833135059332,279.238315081163 1498.359404790742,289.870202330128 1519.015642874445,311.133976828058C1539.671880958148,332.397751325988 1550,365.143964052799 1550,409.372615008493L1550,675.10904259119L1484.750589112067,675.10904259119L1484.750589112067,431.243925920649C1484.750589112067,404.998352826061 1482.624211662274,386.103970343616 1478.371456762688,374.560778473311C1474.118701863103,363.017586603006 1466.402989402425,353.72227946534 1455.224319380657,346.674857060312C1444.045649358888,339.627434655284 1430.922862811594,336.10372345277 1415.855959738775,336.10372345277C1388.638328381426,336.10372345277 1366.037973772198,345.156016024745 1348.054895911091,363.260601168697C1330.071818049985,381.365186312648 1321.080279119432,410.344673271255 1321.080279119432,450.199062044517L1321.080279119432,675.10904259119L1255.466346382964,675.10904259119L1255.466346382964,423.588967101394C1255.466346382964,394.427219218519 1250.12002593777,372.555908306363 1239.427385047382,357.975034364926C1228.734744156995,343.394160423488 1211.23769542727,336.10372345277 1186.936238858208,336.10372345277C1168.46713186572,336.10372345277 1151.395358625954,340.964014766582 1135.720919138908,350.684597394207C1120.046479651864,360.405180021832 1108.685548705827,374.621532114733 1101.638126300798,393.333653672912C1094.590703895771,412.04577523109 1091.066992693256,439.020392022749 1091.066992693256,474.257504047889L1091.066992693256,675.10904259119L1025.453059956788,675.10904259119Z" style="fill:rgb(255,0,137);fill-rule:nonzero;"/></g></g></svg>